<svg width="39" height="39" viewBox="0 0 39 39" fill="none" xmlns="http://www.w3.org/2000/svg">
<path fill-rule="evenodd" clip-rule="evenodd" d="M19.4992 0C8.73033 0 0 8.95094 0 19.9955C0 28.8277 5.58675 36.3216 13.3364 38.9653C14.3114 39.1495 14.668 38.5321 14.668 38.0027C14.668 37.5273 14.651 36.2702 14.6404 34.6023C9.21617 35.8105 8.07139 31.922 8.07139 31.922C7.18577 29.6119 5.90768 28.997 5.90768 28.997C4.13643 27.7565 6.04173 27.7814 6.04173 27.7814C7.99742 27.9224 9.02686 29.8418 9.02686 29.8418C10.7681 32.8979 13.5915 32.0158 14.703 31.503C14.8793 30.211 15.3839 29.3298 15.9412 28.8303C11.6106 28.3249 7.05899 26.6106 7.05899 18.9491C7.05899 16.7667 7.81789 14.9819 9.06589 13.5837C8.8652 13.0775 8.1965 11.0453 9.25682 8.29208C9.25682 8.29208 10.894 7.75523 14.6193 10.3417C16.1752 9.89858 17.8425 9.677 19.5008 9.6687C21.1575 9.677 22.8256 9.89858 24.3839 10.3417C28.1052 7.75523 29.74 8.29208 29.74 8.29208C30.8043 11.0453 30.1348 13.0775 29.9341 13.5837C31.1837 14.9819 31.9386 16.7659 31.9386 18.9491C31.9386 26.6296 27.3796 28.3199 23.036 28.8153C23.7347 29.4327 24.3596 30.6516 24.3596 32.5178C24.3596 35.1898 24.3352 37.3464 24.3352 38.0027C24.3352 38.5371 24.6862 39.1595 25.6758 38.9628C33.4181 36.3141 39 28.8253 39 19.9955C39 8.95094 30.2689 0 19.4992 0Z" fill="#a904d3"/>
</svg>
