<svg width="39" height="39" viewBox="0 0 39 39" fill="none" xmlns="http://www.w3.org/2000/svg">
<path d="M19.4995 0C8.73065 0 0 8.73073 0 19.4997C0 30.2689 8.73032 39 19.4995 39C30.269 39 39 30.2689 39 19.4997C38.9997 8.73073 30.269 0 19.4995 0ZM11.4081 8.79479C12.7345 8.79479 13.8104 9.77596 13.8104 10.9864C13.8104 12.1969 12.7345 13.178 11.4081 13.178C10.081 13.178 9.00578 12.1969 9.00578 10.9864C9.00578 9.77596 10.081 8.79479 11.4081 8.79479ZM13.8286 27.5399H9.08198V15.1539H13.8286V27.5399ZM29.9581 27.5399H25.1885V20.729C25.1885 19.9515 25.0442 19.4012 24.7566 19.0782C24.4687 18.7559 24.0644 18.594 23.5442 18.594C22.9686 18.594 22.5016 18.8118 22.1442 19.2475C21.7865 19.6831 21.6081 20.4643 21.6081 21.5918V27.5399H16.8611V15.1539H21.2811V17.1712C21.9416 16.3474 22.6106 15.7584 23.2869 15.4044C23.9633 15.0507 24.787 14.874 25.759 14.874C27.0733 14.874 28.1013 15.2644 28.8441 16.046C29.5862 16.8272 29.9578 18.0343 29.9578 19.6672V27.5399H29.9581Z" fill="#a904d3"/>
</svg>
