<svg width="40" height="29" viewBox="0 0 31 29" fill="none" xmlns="http://www.w3.org/2000/svg">
        <rect x="0.5" y="0.5" width="30" height="20" stroke="#7A058D"/>
        <rect x="0.5" y="0.5" width="30" height="20" stroke="url(#paint0_linear)"/>
        <line x1="5" y1="27.5" x2="26" y2="27.5" stroke="#7A058D"/>
        <line x1="5" y1="27.5" x2="26" y2="27.5" stroke="url(#paint1_linear)"/>
        <line x1="13" y1="28.0208" x2="13" y2="21.0208" stroke="#7A058D"/>
        <line x1="13" y1="28.0208" x2="13" y2="21.0208" stroke="url(#paint2_linear)"/>
        <line x1="17.5" y1="28" x2="17.5" y2="21" stroke="#7A058D"/>
        <line x1="17.5" y1="28" x2="17.5" y2="21" stroke="url(#paint3_linear)"/>
        <line x1="3" y1="4.5" x2="27" y2="4.5" stroke="#7A058D"/>
        <line x1="3" y1="4.5" x2="27" y2="4.5" stroke="url(#paint4_linear)"/>
        <line x1="3" y1="6.5" x2="27" y2="6.5" stroke="#7A058D"/>
        <line x1="3" y1="6.5" x2="27" y2="6.5" stroke="url(#paint5_linear)"/>
        <line x1="3" y1="8.5" x2="27" y2="8.5" stroke="#7A058D"/>
        <line x1="3" y1="8.5" x2="27" y2="8.5" stroke="url(#paint6_linear)"/>
        <line x1="3" y1="18.5" x2="27" y2="18.5" stroke="#7A058D"/>
        <line x1="3" y1="18.5" x2="27" y2="18.5" stroke="url(#paint7_linear)"/>
        <line x1="3" y1="12.5" x2="17" y2="12.5" stroke="#7A058D"/>
        <line x1="3" y1="12.5" x2="17" y2="12.5" stroke="url(#paint8_linear)"/>
        <line x1="3" y1="14.5" x2="17" y2="14.5" stroke="#7A058D"/>
        <line x1="3" y1="14.5" x2="17" y2="14.5" stroke="url(#paint9_linear)"/>
        <line x1="3" y1="10.5" x2="12" y2="10.5" stroke="#7A058D"/>
        <line x1="3" y1="10.5" x2="12" y2="10.5" stroke="url(#paint10_linear)"/>
        <line x1="3" y1="2.5" x2="12" y2="2.5" stroke="#7A058D"/>
        <line x1="3" y1="2.5" x2="12" y2="2.5" stroke="url(#paint11_linear)"/>
        <line x1="3" y1="16.5" x2="12" y2="16.5" stroke="#7A058D"/>
        <line x1="3" y1="16.5" x2="12" y2="16.5" stroke="url(#paint12_linear)"/>
        <defs>
          <linearGradient id="paint0_linear" x1="15.5" y1="0" x2="15.5" y2="21" gradientUnits="userSpaceOnUse">
            <stop stop-color="#5808BE"/>
            <stop offset="1" stop-color="white" stop-opacity="0"/>
          </linearGradient>
          <linearGradient id="paint1_linear" x1="15.5" y1="28" x2="15.5" y2="29" gradientUnits="userSpaceOnUse">
            <stop stop-color="#5808BE"/>
            <stop offset="1" stop-color="white" stop-opacity="0"/>
          </linearGradient>
          <linearGradient id="paint2_linear" x1="13.5" y1="24.5208" x2="14.5" y2="24.5208" gradientUnits="userSpaceOnUse">
            <stop stop-color="#5808BE"/>
            <stop offset="1" stop-color="white" stop-opacity="0"/>
          </linearGradient>
          <linearGradient id="paint3_linear" x1="18" y1="24.5" x2="19" y2="24.5" gradientUnits="userSpaceOnUse">
            <stop stop-color="#5808BE"/>
            <stop offset="1" stop-color="white" stop-opacity="0"/>
          </linearGradient>
          <linearGradient id="paint4_linear" x1="15" y1="5" x2="15" y2="6" gradientUnits="userSpaceOnUse">
            <stop stop-color="#5808BE"/>
            <stop offset="1" stop-color="white" stop-opacity="0"/>
          </linearGradient>
          <linearGradient id="paint5_linear" x1="15" y1="7" x2="15" y2="8" gradientUnits="userSpaceOnUse">
            <stop stop-color="#5808BE"/>
            <stop offset="1" stop-color="white" stop-opacity="0"/>
          </linearGradient>
          <linearGradient id="paint6_linear" x1="15" y1="9" x2="15" y2="10" gradientUnits="userSpaceOnUse">
            <stop stop-color="#5808BE"/>
            <stop offset="1" stop-color="white" stop-opacity="0"/>
          </linearGradient>
          <linearGradient id="paint7_linear" x1="15" y1="19" x2="15" y2="20" gradientUnits="userSpaceOnUse">
            <stop stop-color="#5808BE"/>
            <stop offset="1" stop-color="white" stop-opacity="0"/>
          </linearGradient>
          <linearGradient id="paint8_linear" x1="10" y1="13" x2="10" y2="14" gradientUnits="userSpaceOnUse">
            <stop stop-color="#5808BE"/>
            <stop offset="1" stop-color="white" stop-opacity="0"/>
          </linearGradient>
          <linearGradient id="paint9_linear" x1="10" y1="15" x2="10" y2="16" gradientUnits="userSpaceOnUse">
            <stop stop-color="#5808BE"/>
            <stop offset="1" stop-color="white" stop-opacity="0"/>
          </linearGradient>
          <linearGradient id="paint10_linear" x1="7.5" y1="11" x2="7.5" y2="12" gradientUnits="userSpaceOnUse">
            <stop stop-color="#5808BE"/>
            <stop offset="1" stop-color="white" stop-opacity="0"/>
          </linearGradient>
          <linearGradient id="paint11_linear" x1="7.5" y1="3" x2="7.5" y2="4" gradientUnits="userSpaceOnUse">
            <stop stop-color="#5808BE"/>
            <stop offset="1" stop-color="white" stop-opacity="0"/>
          </linearGradient>
          <linearGradient id="paint12_linear" x1="7.5" y1="17" x2="7.5" y2="18" gradientUnits="userSpaceOnUse">
            <stop stop-color="#5808BE"/>
            <stop offset="1" stop-color="white" stop-opacity="0"/>
          </linearGradient>
      </defs>
        </svg>