<svg width="40" height="41" viewBox="0 0 40 41" fill="none" xmlns="http://www.w3.org/2000/svg">
      <path d="M14.486 34.309V30.6972V25.8768C12.262 25.0464 10.4481 23.6311 9.33783 21.8597C8.22756 20.0883 7.88589 18.0645 8.36812 16.1159C8.85035 14.1672 10.1283 12.4077 11.9951 11.122C13.8619 9.83634 16.2083 9.09976 18.6547 9.03146C21.1011 8.96316 23.5044 9.56713 25.4755 10.7456C27.4466 11.9242 28.8704 13.6083 29.5163 15.5254C30.1622 17.4426 29.9926 19.4806 29.0348 21.3098C28.077 23.1389 26.3871 24.6521 24.2385 25.6045V30.4249V34.309M17.6692 33.9077L16.7631 20.6643L18.6547 23.8749L19.4814 21.3098L20.8406 23.8749L22.1997 20.6643L20.8406 33.9077" stroke="#7A058D"/>
      <path d="M14.486 34.309V30.6972V25.8768C12.262 25.0464 10.4481 23.6311 9.33783 21.8597C8.22756 20.0883 7.88589 18.0645 8.36812 16.1159C8.85035 14.1672 10.1283 12.4077 11.9951 11.122C13.8619 9.83634 16.2083 9.09976 18.6547 9.03146C21.1011 8.96316 23.5044 9.56713 25.4755 10.7456C27.4466 11.9242 28.8704 13.6083 29.5163 15.5254C30.1622 17.4426 29.9926 19.4806 29.0348 21.3098C28.077 23.1389 26.3871 24.6521 24.2385 25.6045V30.4249V34.309M17.6692 33.9077L16.7631 20.6643L18.6547 23.8749L19.4814 21.3098L20.8406 23.8749L22.1997 20.6643L20.8406 33.9077" stroke="url(#paint0_linear)"/>
      <line x1="14.4978" y1="35.0131" x2="24.465" y2="35.0131" stroke="#7A058D"/>
      <line x1="14.4978" y1="35.0131" x2="24.465" y2="35.0131" stroke="url(#paint1_linear)"/>
      <line x1="16.3101" y1="36.6183" x2="23.5589" y2="36.6183" stroke="#7A058D"/>
      <line x1="16.3101" y1="36.6183" x2="23.5589" y2="36.6183" stroke="url(#paint2_linear)"/>
      <line x1="18.1222" y1="38.2235" x2="21.7466" y2="38.2235" stroke="#7A058D"/>
      <line x1="18.1222" y1="38.2235" x2="21.7466" y2="38.2235" stroke="url(#paint3_linear)"/>
      <line y1="-0.5" x2="4.35138" y2="-0.5" transform="matrix(0.832941 -0.553361 0.646184 0.763182 3.62439 28.2893)" stroke="#7A058D"/>
      <line y1="-0.5" x2="4.35138" y2="-0.5" transform="matrix(0.832941 -0.553361 0.646184 0.763182 3.62439 28.2893)" stroke="url(#paint4_linear)"/>
      <line y1="-0.5" x2="4.39514" y2="-0.5" transform="matrix(0.878665 0.477439 -0.569324 0.822113 29.9017 26.6841)" stroke="#7A058D"/>
      <line y1="-0.5" x2="4.39514" y2="-0.5" transform="matrix(0.878665 0.477439 -0.569324 0.822113 29.9017 26.6841)" stroke="url(#paint5_linear)"/>
      <line y1="-0.5" x2="5.49559" y2="-0.5" transform="matrix(0.989277 0.146049 -0.18491 0.982755 0 17.8552)" stroke="#7A058D"/>
      <line y1="-0.5" x2="5.49559" y2="-0.5" transform="matrix(0.989277 0.146049 -0.18491 0.982755 0 17.8552)" stroke="url(#paint6_linear)"/>
      <line y1="-0.5" x2="6.05237" y2="-0.5" transform="matrix(0.748558 0.663069 -0.748558 0.663069 2.71826 7.42102)" stroke="#7A058D"/>
      <line y1="-0.5" x2="6.05237" y2="-0.5" transform="matrix(0.748558 0.663069 -0.748558 0.663069 2.71826 7.42102)" stroke="url(#paint7_linear)"/>
      <line y1="-0.5" x2="6.67186" y2="-0.5" transform="matrix(0.271622 0.962404 -0.976347 0.216211 13.5917 1)" stroke="#7A058D"/>
      <line y1="-0.5" x2="6.67186" y2="-0.5" transform="matrix(0.271622 0.962404 -0.976347 0.216211 13.5917 1)" stroke="url(#paint8_linear)"/>
      <line y1="-0.5" x2="6.97272" y2="-0.5" transform="matrix(-0.389852 0.920877 -0.949013 -0.315237 28.0894 1.80261)" stroke="#7A058D"/>
      <line y1="-0.5" x2="6.97272" y2="-0.5" transform="matrix(-0.389852 0.920877 -0.949013 -0.315237 28.0894 1.80261)" stroke="url(#paint9_linear)"/>
      <line y1="-0.5" x2="7.92803" y2="-0.5" transform="matrix(-0.914336 0.404957 -0.49156 -0.870843 38.0566 9.82886)" stroke="#7A058D"/>
      <line y1="-0.5" x2="7.92803" y2="-0.5" transform="matrix(-0.914336 0.404957 -0.49156 -0.870843 38.0566 9.82886)" stroke="url(#paint10_linear)"/>
      <line y1="-0.5" x2="7.4245" y2="-0.5" transform="matrix(-0.976347 -0.216211 0.271622 -0.962404 39.8689 21.8683)" stroke="#7A058D"/>
      <line y1="-0.5" x2="7.4245" y2="-0.5" transform="matrix(-0.976347 -0.216211 0.271622 -0.962404 39.8689 21.8683)" stroke="url(#paint11_linear)"/>
      <line x1="19.0283" y1="39.8287" x2="20.8405" y2="39.8287" stroke="#7A058D"/>
      <line x1="19.0283" y1="39.8287" x2="20.8405" y2="39.8287" stroke="url(#paint12_linear)"/>
      <defs>
        <linearGradient id="paint0_linear" x1="19.0284" y1="9.02625" x2="19.0284" y2="34.309" gradientUnits="userSpaceOnUse">
          <stop stop-color="#5808BE"/>
          <stop offset="1" stop-color="white" stop-opacity="0"/>
        </linearGradient>
        <linearGradient id="paint1_linear" x1="19.4814" y1="35.5131" x2="19.4814" y2="36.5131" gradientUnits="userSpaceOnUse">
          <stop stop-color="#5808BE"/>
          <stop offset="1" stop-color="white" stop-opacity="0"/>
        </linearGradient>
        <linearGradient id="paint2_linear" x1="19.9345" y1="37.1183" x2="19.9345" y2="38.1183" gradientUnits="userSpaceOnUse">
          <stop stop-color="#5808BE"/>
          <stop offset="1" stop-color="white" stop-opacity="0"/>
        </linearGradient>
        <linearGradient id="paint3_linear" x1="19.9344" y1="38.7235" x2="19.9344" y2="39.7235" gradientUnits="userSpaceOnUse">
          <stop stop-color="#5808BE"/>
          <stop offset="1" stop-color="white" stop-opacity="0"/>
        </linearGradient>
        <linearGradient id="paint4_linear" x1="2.17569" y1="0" x2="2.17569" y2="1" gradientUnits="userSpaceOnUse">
          <stop stop-color="#5808BE"/>
          <stop offset="1" stop-color="white" stop-opacity="0"/>
        </linearGradient>
        <linearGradient id="paint5_linear" x1="2.19757" y1="0" x2="2.19757" y2="1" gradientUnits="userSpaceOnUse">
          <stop stop-color="#5808BE"/>
          <stop offset="1" stop-color="white" stop-opacity="0"/>
        </linearGradient>
        <linearGradient id="paint6_linear" x1="2.74779" y1="0" x2="2.74779" y2="1" gradientUnits="userSpaceOnUse">
          <stop stop-color="#5808BE"/>
          <stop offset="1" stop-color="white" stop-opacity="0"/>
        </linearGradient>
        <linearGradient id="paint7_linear" x1="3.02618" y1="0" x2="3.02618" y2="1" gradientUnits="userSpaceOnUse">
          <stop stop-color="#5808BE"/>
          <stop offset="1" stop-color="white" stop-opacity="0"/>
        </linearGradient>
        <linearGradient id="paint8_linear" x1="3.33593" y1="0" x2="3.33593" y2="1" gradientUnits="userSpaceOnUse">
          <stop stop-color="#5808BE"/>
          <stop offset="1" stop-color="white" stop-opacity="0"/>
        </linearGradient>
        <linearGradient id="paint9_linear" x1="3.48636" y1="0" x2="3.48636" y2="1" gradientUnits="userSpaceOnUse">
          <stop stop-color="#5808BE"/>
          <stop offset="1" stop-color="white" stop-opacity="0"/>
        </linearGradient>
        <linearGradient id="paint10_linear" x1="3.96402" y1="0" x2="3.96402" y2="1" gradientUnits="userSpaceOnUse">
          <stop stop-color="#5808BE"/>
          <stop offset="1" stop-color="white" stop-opacity="0"/>
        </linearGradient>
        <linearGradient id="paint11_linear" x1="3.71225" y1="0" x2="3.71225" y2="1" gradientUnits="userSpaceOnUse">
          <stop stop-color="#5808BE"/>
          <stop offset="1" stop-color="white" stop-opacity="0"/>
        </linearGradient>
        <linearGradient id="paint12_linear" x1="19.9344" y1="40.3287" x2="19.9344" y2="41.3287" gradientUnits="userSpaceOnUse">
          <stop stop-color="#5808BE"/>
          <stop offset="1" stop-color="white" stop-opacity="0"/>
        </linearGradient>
      </defs>
        </svg>