        <svg width="28" height="25" viewBox="0 0 28 35" fill="none" xmlns="http://www.w3.org/2000/svg">
          <rect x="0.5" y="2.5" width="27" height="32" rx="1.5" stroke="#7A058D"/>
          <rect x="0.5" y="2.5" width="27" height="32" rx="1.5" stroke="url(#paint0_linear)"/>
          <rect x="8.5" y="0.5" width="12" height="5" rx="0.5" fill="#7A058D"/>
          <rect x="8.5" y="0.5" width="12" height="5" rx="0.5" fill="url(#paint1_linear)"/>
          <rect x="8.5" y="0.5" width="12" height="5" rx="0.5" stroke="#7A058D"/>
          <rect x="8.5" y="0.5" width="12" height="5" rx="0.5" stroke="url(#paint2_linear)"/>
          <rect x="4.5" y="11.5" width="3" height="3" rx="0.5" stroke="#7A058D"/>
          <rect x="4.5" y="11.5" width="3" height="3" rx="0.5" stroke="url(#paint3_linear)"/>
          <rect x="4.5" y="18.5" width="3" height="3" rx="0.5" stroke="#7A058D"/>
          <rect x="4.5" y="18.5" width="3" height="3" rx="0.5" stroke="url(#paint4_linear)"/>
          <rect x="4.5" y="25.5" width="3" height="3" rx="0.5" stroke="#7A058D"/>
          <rect x="4.5" y="25.5" width="3" height="3" rx="0.5" stroke="url(#paint5_linear)"/>
          <line x1="11" y1="12.5" x2="21" y2="12.5" stroke="#7A058D"/>
          <line x1="11" y1="12.5" x2="21" y2="12.5" stroke="url(#paint6_linear)"/>
          <line x1="11" y1="20.5" x2="21" y2="20.5" stroke="#7A058D"/>
          <line x1="11" y1="20.5" x2="21" y2="20.5" stroke="url(#paint7_linear)"/>
          <line x1="11" y1="27.5" x2="21" y2="27.5" stroke="#7A058D"/>
          <line x1="11" y1="27.5" x2="21" y2="27.5" stroke="url(#paint8_linear)"/>
          <defs>
          <linearGradient id="paint0_linear" x1="14" y1="2" x2="14" y2="35" gradientUnits="userSpaceOnUse">
            <stop stop-color="#5808BE"/>
            <stop offset="1" stop-color="white" stop-opacity="0"/>
          </linearGradient>
          <linearGradient id="paint1_linear" x1="14.5" y1="0" x2="14.5" y2="6" gradientUnits="userSpaceOnUse">
            <stop stop-color="#5808BE"/>
            <stop offset="1" stop-color="white" stop-opacity="0"/>
          </linearGradient>
          <linearGradient id="paint2_linear" x1="14.5" y1="0" x2="14.5" y2="6" gradientUnits="userSpaceOnUse">
            <stop stop-color="#5808BE"/>
            <stop offset="1" stop-color="white" stop-opacity="0"/>
          </linearGradient>
          <linearGradient id="paint3_linear" x1="6" y1="11" x2="6" y2="15" gradientUnits="userSpaceOnUse">
            <stop stop-color="#5808BE"/>
            <stop offset="1" stop-color="white" stop-opacity="0"/>
          </linearGradient>
          <linearGradient id="paint4_linear" x1="6" y1="18" x2="6" y2="22" gradientUnits="userSpaceOnUse">
            <stop stop-color="#5808BE"/>
            <stop offset="1" stop-color="white" stop-opacity="0"/>
          </linearGradient>
          <linearGradient id="paint5_linear" x1="6" y1="25" x2="6" y2="29" gradientUnits="userSpaceOnUse">
            <stop stop-color="#5808BE"/>
            <stop offset="1" stop-color="white" stop-opacity="0"/>
          </linearGradient>
          <linearGradient id="paint6_linear" x1="16" y1="13" x2="16" y2="14" gradientUnits="userSpaceOnUse">
            <stop stop-color="#5808BE"/>
            <stop offset="1" stop-color="white" stop-opacity="0"/>
          </linearGradient>
          <linearGradient id="paint7_linear" x1="16" y1="21" x2="16" y2="22" gradientUnits="userSpaceOnUse">
            <stop stop-color="#5808BE"/>
            <stop offset="1" stop-color="white" stop-opacity="0"/>
          </linearGradient>
          <linearGradient id="paint8_linear" x1="16" y1="28" x2="16" y2="29" gradientUnits="userSpaceOnUse">
            <stop stop-color="#5808BE"/>
            <stop offset="1" stop-color="white" stop-opacity="0"/>
          </linearGradient>
          </defs>
        </svg>
        
      
        
